<svg width="180" height="180" viewBox="0 0 180 180" fill="none" xmlns="http://www.w3.org/2000/svg">
<rect width="180" height="180" fill="white"/>
<path d="M81.9436 41.1995L71.0841 59.945C71.0841 59.945 74.9837 61.2948 79.6973 63.9259C84.3806 66.7532 87.2377 69.3812 87.2377 69.3812L97.5037 50.3409C97.5037 50.3409 96.7997 48.036 90.4659 44.3333C84.0169 40.6606 81.9436 41.1995 81.9436 41.1995ZM57.2174 115.92L58.0546 121.674L87.2377 69.3812C87.2377 69.3812 83.7172 66.2397 79.6973 63.9259C75.5327 61.5253 71.0841 59.945 71.0841 59.945L41.8303 112.332L47.9617 110.365L50.3603 116.956L57.2174 115.92ZM35 140.728L39.724 117.606L45.1349 115.702L47.2148 122.003L54.1307 121.201L54.735 126.517L37.2845 142L35 140.728Z" fill="#11191B"/>
<path d="M80.884 42.7937C83.4399 38.2396 89.1483 36.6514 93.634 39.2464C98.1231 41.8433 99.6858 47.645 97.1231 52.1998L61.5501 115.427L45.3114 106.176L80.884 42.7937Z" fill="#11191B"/>
<path d="M81.79 53.7107C79.2199 49.1304 80.7936 43.302 85.305 40.6926C89.8164 38.0832 95.5571 39.681 98.1273 44.2613L144.766 127.377C147.336 131.957 145.762 137.785 141.251 140.395C136.739 143.004 130.999 141.406 128.429 136.826L81.79 53.7107Z" fill="#11191B"/>
<path d="M72.8146 101.792C72.1978 101.792 71.6931 102.309 71.6931 102.94V109.83C71.6931 110.461 72.1978 110.978 72.8146 110.978C73.4315 110.978 73.9362 110.461 73.9362 109.83V102.94C73.9362 102.309 73.4315 101.792 72.8146 101.792ZM104.218 101.792C103.601 101.792 103.096 102.309 103.096 102.94V109.83C103.096 110.461 103.601 110.978 104.218 110.978C104.835 110.978 105.34 110.461 105.34 109.83V102.94C105.34 102.309 104.835 101.792 104.218 101.792ZM77.3008 94.9024C76.684 94.9024 76.1793 95.4191 76.1793 96.0506V116.719C76.1793 117.35 76.684 117.867 77.3008 117.867C77.9177 117.867 78.4224 117.35 78.4224 116.719V96.0506C78.4224 95.4191 77.9177 94.9024 77.3008 94.9024ZM81.787 99.4953C81.1702 99.4953 80.6655 100.012 80.6655 100.644V112.126C80.6655 112.758 81.1702 113.274 81.787 113.274C82.4039 113.274 82.9086 112.758 82.9086 112.126V100.644C82.9086 100.012 82.4039 99.4953 81.787 99.4953ZM86.2732 104.088C85.6564 104.088 85.1517 104.605 85.1517 105.237V107.533C85.1517 108.165 85.6564 108.681 86.2732 108.681C86.8901 108.681 87.3948 108.165 87.3948 107.533V105.237C87.3948 104.605 86.8901 104.088 86.2732 104.088ZM90.7594 99.4953C90.1426 99.4953 89.6379 100.012 89.6379 100.644V112.126C89.6379 112.758 90.1426 113.274 90.7594 113.274C91.3763 113.274 91.881 112.758 91.881 112.126V100.644C91.881 100.012 91.3763 99.4953 90.7594 99.4953ZM95.2456 90.3094C94.6288 90.3094 94.1241 90.8261 94.1241 91.4576V121.312C94.1241 121.943 94.6288 122.46 95.2456 122.46C95.8625 122.46 96.3672 121.943 96.3672 121.312V91.4576C96.3672 90.8261 95.8625 90.3094 95.2456 90.3094ZM99.7318 94.9024C99.115 94.9024 98.6103 95.4191 98.6103 96.0506V116.719C98.6103 117.35 99.115 117.867 99.7318 117.867C100.349 117.867 100.853 117.35 100.853 116.719V96.0506C100.853 95.4191 100.349 94.9024 99.7318 94.9024Z" fill="#14B8A6"/>
<path d="M80.884 42.7937C83.4399 38.2396 89.1483 36.6514 93.634 39.2464C98.1231 41.8433 99.6858 47.645 97.1231 52.1998L61.5501 115.427L45.3114 106.176L80.884 42.7937Z" fill="#11191B"/>
</svg>
