<svg width="180" height="180" viewBox="0 0 180 180" fill="none" xmlns="http://www.w3.org/2000/svg">
<rect width="180" height="180" fill="white"/>
<path d="M78.0079 21.3851L62.5647 47.8093C62.5647 47.8093 68.1103 49.7121 74.8133 53.421C81.4735 57.4064 85.5365 61.1109 85.5365 61.1109L100.136 34.2711C100.136 34.2711 99.1345 31.022 90.1272 25.8026C80.9562 20.6254 78.0079 21.3851 78.0079 21.3851ZM42.845 126.714L44.0356 134.824L85.5365 61.1109C85.5365 61.1109 80.53 56.6825 74.8133 53.421C68.891 50.037 62.5647 47.8093 62.5647 47.8093L20.9633 121.655L29.6827 118.882L33.0937 128.174L42.845 126.714ZM11.25 161.683L17.968 129.09L25.6627 126.406L28.6205 135.289L38.4556 134.157L39.3149 141.651L14.4987 163.477L11.25 161.683Z" fill="#2D3F4E"/>
<path d="M76.5009 23.6324C80.1358 17.2127 88.2536 14.9739 94.6326 18.6319C101.016 22.2927 103.239 30.4709 99.5944 36.8915L49.0065 126.018L25.9137 112.978L76.5009 23.6324Z" fill="#2D3F4E"/>
<path d="M77.7894 39.0212C74.1345 32.5647 76.3724 24.3488 82.788 20.6706C89.2037 16.9923 97.3675 19.2446 101.022 25.7011L167.346 142.863C171.001 149.32 168.763 157.536 162.348 161.214C155.932 164.892 147.768 162.64 144.113 156.183L77.7894 39.0212Z" fill="#2D3F4E"/>
<path d="M65.0257 106.798C64.1484 106.798 63.4307 107.526 63.4307 108.416V118.128C63.4307 119.018 64.1484 119.747 65.0257 119.747C65.9029 119.747 66.6206 119.018 66.6206 118.128V108.416C66.6206 107.526 65.9029 106.798 65.0257 106.798ZM109.684 106.798C108.807 106.798 108.089 107.526 108.089 108.416V118.128C108.089 119.018 108.807 119.747 109.684 119.747C110.561 119.747 111.279 119.018 111.279 118.128V108.416C111.279 107.526 110.561 106.798 109.684 106.798ZM71.4054 97.0863C70.5282 97.0863 69.8105 97.8147 69.8105 98.7049V127.84C69.8105 128.73 70.5282 129.458 71.4054 129.458C72.2826 129.458 73.0004 128.73 73.0004 127.84V98.7049C73.0004 97.8147 72.2826 97.0863 71.4054 97.0863ZM77.7852 103.561C76.908 103.561 76.1902 104.289 76.1902 105.179V121.365C76.1902 122.255 76.908 122.984 77.7852 122.984C78.6624 122.984 79.3801 122.255 79.3801 121.365V105.179C79.3801 104.289 78.6624 103.561 77.7852 103.561ZM84.1649 110.035C83.2877 110.035 82.57 110.763 82.57 111.654V114.891C82.57 115.781 83.2877 116.509 84.1649 116.509C85.0421 116.509 85.7599 115.781 85.7599 114.891V111.654C85.7599 110.763 85.0421 110.035 84.1649 110.035ZM90.5447 103.561C89.6675 103.561 88.9497 104.289 88.9497 105.179V121.365C88.9497 122.255 89.6675 122.984 90.5447 122.984C91.4219 122.984 92.1396 122.255 92.1396 121.365V105.179C92.1396 104.289 91.4219 103.561 90.5447 103.561ZM96.9244 90.6119C96.0472 90.6119 95.3295 91.3403 95.3295 92.2305V134.314C95.3295 135.204 96.0472 135.933 96.9244 135.933C97.8017 135.933 98.5194 135.204 98.5194 134.314V92.2305C98.5194 91.3403 97.8017 90.6119 96.9244 90.6119ZM103.304 97.0863C102.427 97.0863 101.709 97.8147 101.709 98.7049V127.84C101.709 128.73 102.427 129.458 103.304 129.458C104.181 129.458 104.899 128.73 104.899 127.84V98.7049C104.899 97.8147 104.181 97.0863 103.304 97.0863Z" fill="#629BEA"/>
<path d="M76.5009 23.6324C80.1358 17.2127 88.2536 14.9739 94.6326 18.6319C101.016 22.2927 103.239 30.4709 99.5944 36.8915L49.0065 126.018L25.9137 112.978L76.5009 23.6324Z" fill="#2D3F4E"/>
</svg>
