<svg width="144" height="144" viewBox="0 0 144 144" fill="none" xmlns="http://www.w3.org/2000/svg">
<rect width="144" height="144" fill="white"/>
<path d="M64.4061 26.9841L54.1336 44.4679C54.1336 44.4679 57.8224 45.7269 62.2812 48.1809C66.7114 50.8179 69.4141 53.269 69.4141 53.269L79.1251 35.5103C79.1251 35.5103 78.4592 33.3605 72.4677 29.907C66.3673 26.4815 64.4061 26.9841 64.4061 26.9841ZM41.0164 96.6756L41.8084 102.042L69.4141 53.269C69.4141 53.269 66.0838 50.339 62.2812 48.1809C58.3418 45.9419 54.1336 44.4679 54.1336 44.4679L26.4611 93.3286L32.2611 91.494L34.53 97.6418L41.0164 96.6756ZM20 119.813L24.4687 98.2481L29.5871 96.4722L31.5545 102.349L38.0966 101.601L38.6683 106.559L22.161 121L20 119.813Z" fill="#11191B"/>
<path d="M63.4037 28.4711C65.8216 24.2234 71.2214 22.7421 75.4646 25.1625C79.711 27.5846 81.1893 32.9958 78.7651 37.2441L45.115 96.2155L29.754 87.5871L63.4037 28.4711Z" fill="#11191B"/>
<path d="M64.2608 38.6532C61.8296 34.3812 63.3183 28.9451 67.5858 26.5114C71.8534 24.0776 77.2838 25.5678 79.715 29.8398L123.833 107.361C126.264 111.633 124.775 117.069 120.508 119.503C116.24 121.937 110.81 120.446 108.378 116.174L64.2608 38.6532Z" fill="#11191B"/>
<path d="M55.7706 83.4981C55.1871 83.4981 54.7097 83.9801 54.7097 84.5691V90.9948C54.7097 91.5838 55.1871 92.0658 55.7706 92.0658C56.3541 92.0658 56.8315 91.5838 56.8315 90.9948V84.5691C56.8315 83.9801 56.3541 83.4981 55.7706 83.4981ZM85.4765 83.4981C84.893 83.4981 84.4156 83.9801 84.4156 84.5691V90.9948C84.4156 91.5838 84.893 92.0658 85.4765 92.0658C86.06 92.0658 86.5374 91.5838 86.5374 90.9948V84.5691C86.5374 83.9801 86.06 83.4981 85.4765 83.4981ZM60.0143 77.0724C59.4308 77.0724 58.9534 77.5543 58.9534 78.1434V97.4206C58.9534 98.0096 59.4308 98.4915 60.0143 98.4915C60.5978 98.4915 61.0752 98.0096 61.0752 97.4206V78.1434C61.0752 77.5543 60.5978 77.0724 60.0143 77.0724ZM64.258 81.3562C63.6745 81.3562 63.1971 81.8382 63.1971 82.4272V93.1367C63.1971 93.7258 63.6745 94.2077 64.258 94.2077C64.8415 94.2077 65.3189 93.7258 65.3189 93.1367V82.4272C65.3189 81.8382 64.8415 81.3562 64.258 81.3562ZM68.5017 85.64C67.9182 85.64 67.4408 86.122 67.4408 86.711V88.8529C67.4408 89.4419 67.9182 89.9239 68.5017 89.9239C69.0852 89.9239 69.5626 89.4419 69.5626 88.8529V86.711C69.5626 86.122 69.0852 85.64 68.5017 85.64ZM72.7454 81.3562C72.1619 81.3562 71.6845 81.8382 71.6845 82.4272V93.1367C71.6845 93.7258 72.1619 94.2077 72.7454 94.2077C73.3289 94.2077 73.8063 93.7258 73.8063 93.1367V82.4272C73.8063 81.8382 73.3289 81.3562 72.7454 81.3562ZM76.9891 72.7886C76.4056 72.7886 75.9282 73.2705 75.9282 73.8595V101.704C75.9282 102.293 76.4056 102.775 76.9891 102.775C77.5726 102.775 78.05 102.293 78.05 101.704V73.8595C78.05 73.2705 77.5726 72.7886 76.9891 72.7886ZM81.2328 77.0724C80.6493 77.0724 80.1719 77.5543 80.1719 78.1434V97.4206C80.1719 98.0096 80.6493 98.4915 81.2328 98.4915C81.8163 98.4915 82.2937 98.0096 82.2937 97.4206V78.1434C82.2937 77.5543 81.8163 77.0724 81.2328 77.0724Z" fill="#14B8A6"/>
<path d="M63.4037 28.4711C65.8216 24.2234 71.2214 22.7421 75.4646 25.1625C79.711 27.5846 81.1893 32.9958 78.7651 37.2441L45.115 96.2155L29.754 87.5871L63.4037 28.4711Z" fill="#11191B"/>
</svg>
