<svg width="512" height="512" viewBox="0 0 512 512" fill="none" xmlns="http://www.w3.org/2000/svg">
<rect width="512" height="512" fill="white"/>
<path d="M221.889 60.8287L177.962 135.991C177.962 135.991 193.736 141.403 212.802 151.953C231.747 163.289 243.304 173.827 243.304 173.827L284.83 97.4823C284.83 97.4823 281.982 88.2403 256.362 73.3941C230.275 58.6679 221.889 60.8287 221.889 60.8287ZM121.87 360.43L125.257 383.499L243.304 173.827C243.304 173.827 229.063 161.23 212.802 151.953C195.957 142.328 177.962 135.991 177.962 135.991L59.629 346.041L84.4307 338.155L94.1331 364.584L121.87 360.43ZM32 459.899L51.1089 367.19L72.9961 359.556L81.4094 384.821L109.385 381.603L111.829 402.92L41.2408 465L32 459.899Z" fill="#2D3F4E"/>
<path d="M217.603 67.221C227.942 48.9606 251.032 42.5925 269.177 52.9974C287.336 63.4102 293.657 86.6727 283.291 104.936L139.396 358.452L73.7101 321.359L217.603 67.221Z" fill="#2D3F4E"/>
<path d="M221.268 110.994C210.871 92.6285 217.237 69.2589 235.486 58.7963C253.735 48.3338 276.956 54.7401 287.353 73.1053L476.008 406.366C486.404 424.732 480.038 448.101 461.789 458.564C443.54 469.026 420.319 462.62 409.923 444.255L221.268 110.994Z" fill="#2D3F4E"/>
<path d="M184.962 303.781C182.467 303.781 180.425 305.852 180.425 308.385V336.009C180.425 338.541 182.467 340.613 184.962 340.613C187.457 340.613 189.499 338.541 189.499 336.009V308.385C189.499 305.852 187.457 303.781 184.962 303.781ZM311.99 303.781C309.495 303.781 307.453 305.852 307.453 308.385V336.009C307.453 338.541 309.495 340.613 311.99 340.613C314.485 340.613 316.527 338.541 316.527 336.009V308.385C316.527 305.852 314.485 303.781 311.99 303.781ZM203.109 276.157C200.614 276.157 198.572 278.228 198.572 280.761V363.633C198.572 366.165 200.614 368.237 203.109 368.237C205.604 368.237 207.645 366.165 207.645 363.633V280.761C207.645 278.228 205.604 276.157 203.109 276.157ZM221.256 294.573C218.76 294.573 216.719 296.644 216.719 299.177V345.217C216.719 347.749 218.76 349.821 221.256 349.821C223.751 349.821 225.792 347.749 225.792 345.217V299.177C225.792 296.644 223.751 294.573 221.256 294.573ZM239.402 312.989C236.907 312.989 234.866 315.06 234.866 317.593V326.801C234.866 329.333 236.907 331.405 239.402 331.405C241.898 331.405 243.939 329.333 243.939 326.801V317.593C243.939 315.06 241.898 312.989 239.402 312.989ZM257.549 294.573C255.054 294.573 253.013 296.644 253.013 299.177V345.217C253.013 347.749 255.054 349.821 257.549 349.821C260.045 349.821 262.086 347.749 262.086 345.217V299.177C262.086 296.644 260.045 294.573 257.549 294.573ZM275.696 257.741C273.201 257.741 271.16 259.812 271.16 262.345V382.049C271.16 384.581 273.201 386.653 275.696 386.653C278.191 386.653 280.233 384.581 280.233 382.049V262.345C280.233 259.812 278.191 257.741 275.696 257.741ZM293.843 276.157C291.348 276.157 289.306 278.228 289.306 280.761V363.633C289.306 366.165 291.348 368.237 293.843 368.237C296.338 368.237 298.38 366.165 298.38 363.633V280.761C298.38 278.228 296.338 276.157 293.843 276.157Z" fill="#629BEA"/>
<path d="M217.603 67.221C227.942 48.9606 251.032 42.5925 269.177 52.9974C287.336 63.4102 293.657 86.6727 283.291 104.936L139.396 358.452L73.7101 321.359L217.603 67.221Z" fill="#2D3F4E"/>
</svg>
