<svg width="144" height="144" viewBox="0 0 144 144" fill="none" xmlns="http://www.w3.org/2000/svg">
<rect width="144" height="144" fill="white"/>
<path d="M63.1728 20.4148L51.3349 40.422C51.3349 40.422 55.5858 41.8628 60.724 44.6709C65.8293 47.6886 68.9438 50.4934 68.9438 50.4934L80.1346 30.1715C80.1346 30.1715 79.3672 27.7115 72.4628 23.7596C65.4328 19.8397 63.1728 20.4148 63.1728 20.4148ZM36.2189 100.165L37.1316 106.305L68.9438 50.4934C68.9438 50.4934 65.1061 47.1405 60.724 44.6709C56.1843 42.1088 51.3349 40.422 51.3349 40.422L19.4457 96.3347L26.1294 94.2354L28.7441 101.271L36.2189 100.165ZM12 126.642L17.1496 101.964L23.0479 99.9321L25.3152 106.657L32.8542 105.801L33.5129 111.475L14.4903 128L12 126.642Z" fill="#2D3F4E"/>
<path d="M62.0176 22.1164C64.8039 17.2557 71.0266 15.5606 75.9164 18.3303C80.8098 21.102 82.5133 27.2942 79.7198 32.1556L40.942 99.6384L23.2403 89.7646L62.0176 22.1164Z" fill="#2D3F4E"/>
<path d="M63.0053 33.7681C60.2037 28.8795 61.9191 22.6589 66.837 19.8738C71.7548 17.0888 78.0127 18.7941 80.8144 23.6827L131.655 112.392C134.456 117.281 132.741 123.502 127.823 126.287C122.905 129.072 116.647 127.366 113.846 122.478L63.0053 33.7681Z" fill="#2D3F4E"/>
<path d="M53.2214 85.0855C52.5489 85.0855 51.9988 85.637 51.9988 86.311V93.6642C51.9988 94.3382 52.5489 94.8897 53.2214 94.8897C53.8938 94.8897 54.4439 94.3382 54.4439 93.6642V86.311C54.4439 85.637 53.8938 85.0855 53.2214 85.0855ZM87.4539 85.0855C86.7814 85.0855 86.2313 85.637 86.2313 86.311V93.6642C86.2313 94.3382 86.7814 94.8897 87.4539 94.8897C88.1263 94.8897 88.6764 94.3382 88.6764 93.6642V86.311C88.6764 85.637 88.1263 85.0855 87.4539 85.0855ZM58.1117 77.7323C57.4393 77.7323 56.8891 78.2838 56.8891 78.9579V101.017C56.8891 101.691 57.4393 102.243 58.1117 102.243C58.7841 102.243 59.3343 101.691 59.3343 101.017V78.9579C59.3343 78.2838 58.7841 77.7323 58.1117 77.7323ZM63.0021 82.6344C62.3296 82.6344 61.7795 83.1859 61.7795 83.86V96.1152C61.7795 96.7893 62.3296 97.3408 63.0021 97.3408C63.6745 97.3408 64.2247 96.7893 64.2247 96.1152V83.86C64.2247 83.1859 63.6745 82.6344 63.0021 82.6344ZM67.8924 87.5366C67.22 87.5366 66.6698 88.088 66.6698 88.7621V91.2131C66.6698 91.8872 67.22 92.4387 67.8924 92.4387C68.5649 92.4387 69.115 91.8872 69.115 91.2131V88.7621C69.115 88.088 68.5649 87.5366 67.8924 87.5366ZM72.7828 82.6344C72.1104 82.6344 71.5602 83.1859 71.5602 83.86V96.1152C71.5602 96.7893 72.1104 97.3408 72.7828 97.3408C73.4552 97.3408 74.0054 96.7893 74.0054 96.1152V83.86C74.0054 83.1859 73.4552 82.6344 72.7828 82.6344ZM77.6731 72.8302C77.0007 72.8302 76.4506 73.3817 76.4506 74.0558V105.919C76.4506 106.593 77.0007 107.145 77.6731 107.145C78.3456 107.145 78.8957 106.593 78.8957 105.919V74.0558C78.8957 73.3817 78.3456 72.8302 77.6731 72.8302ZM82.5635 77.7323C81.8911 77.7323 81.3409 78.2838 81.3409 78.9579V101.017C81.3409 101.691 81.8911 102.243 82.5635 102.243C83.2359 102.243 83.7861 101.691 83.7861 101.017V78.9579C83.7861 78.2838 83.2359 77.7323 82.5635 77.7323Z" fill="#629BEA"/>
<path d="M62.0176 22.1164C64.8039 17.2557 71.0266 15.5606 75.9164 18.3303C80.8098 21.102 82.5133 27.2942 79.7198 32.1556L40.942 99.6384L23.2403 89.7646L62.0176 22.1164Z" fill="#2D3F4E"/>
</svg>
