<svg width="128" height="128" viewBox="0 0 128 128" fill="none" xmlns="http://www.w3.org/2000/svg">
<rect width="128" height="128" fill="white"/>
<path d="M57.177 23.6765L47.8828 39.3578C47.8828 39.3578 51.2203 40.487 55.2544 42.688C59.2627 45.0532 61.7079 47.2516 61.7079 47.2516L70.4941 31.3236C70.4941 31.3236 69.8916 29.3955 64.4708 26.298C58.9514 23.2257 57.177 23.6765 57.177 23.6765ZM36.0149 86.1832L36.7314 90.9962L61.7079 47.2516C61.7079 47.2516 58.6949 44.6236 55.2544 42.688C51.6902 40.6798 47.8828 39.3578 47.8828 39.3578L22.8458 83.1813L28.0934 81.5359L30.1462 87.0499L36.0149 86.1832ZM17 106.936L21.0431 87.5937L25.674 86.0008L27.4541 91.272L33.3732 90.6007L33.8903 95.048L18.9552 108L17 106.936Z" fill="#11191B"/>
<path d="M56.27 25.0101C58.4576 21.2004 63.3432 19.8718 67.1823 22.0426C71.0242 24.2151 72.3617 29.0684 70.1684 32.8787L39.7231 85.7706L25.8251 78.0317L56.27 25.0101Z" fill="#11191B"/>
<path d="M57.0455 34.1426C54.8458 30.311 56.1927 25.4353 60.0538 23.2525C63.9149 21.0696 68.8282 22.4062 71.0278 26.2378L110.944 95.7671C113.143 99.5987 111.796 104.474 107.935 106.657C104.074 108.84 99.161 107.503 96.9613 103.672L57.0455 34.1426Z" fill="#11191B"/>
<path d="M49.3639 74.3643C48.8359 74.3643 48.404 74.7966 48.404 75.3249V81.0881C48.404 81.6164 48.8359 82.0487 49.3639 82.0487C49.8918 82.0487 50.3238 81.6164 50.3238 81.0881V75.3249C50.3238 74.7966 49.8918 74.3643 49.3639 74.3643ZM76.2406 74.3643C75.7127 74.3643 75.2807 74.7966 75.2807 75.3249V81.0881C75.2807 81.6164 75.7127 82.0487 76.2406 82.0487C76.7686 82.0487 77.2005 81.6164 77.2005 81.0881V75.3249C77.2005 74.7966 76.7686 74.3643 76.2406 74.3643ZM53.2034 68.601C52.6755 68.601 52.2435 69.0333 52.2435 69.5616V86.8514C52.2435 87.3797 52.6755 87.812 53.2034 87.812C53.7313 87.812 54.1633 87.3797 54.1633 86.8514V69.5616C54.1633 69.0333 53.7313 68.601 53.2034 68.601ZM57.0429 72.4432C56.515 72.4432 56.0831 72.8755 56.0831 73.4038V83.0092C56.0831 83.5375 56.515 83.9698 57.0429 83.9698C57.5709 83.9698 58.0028 83.5375 58.0028 83.0092V73.4038C58.0028 72.8755 57.5709 72.4432 57.0429 72.4432ZM60.8825 76.2854C60.3545 76.2854 59.9226 76.7177 59.9226 77.246V79.167C59.9226 79.6954 60.3545 80.1276 60.8825 80.1276C61.4104 80.1276 61.8424 79.6954 61.8424 79.167V77.246C61.8424 76.7177 61.4104 76.2854 60.8825 76.2854ZM64.722 72.4432C64.1941 72.4432 63.7621 72.8755 63.7621 73.4038V83.0092C63.7621 83.5375 64.1941 83.9698 64.722 83.9698C65.25 83.9698 65.6819 83.5375 65.6819 83.0092V73.4038C65.6819 72.8755 65.25 72.4432 64.722 72.4432ZM68.5616 64.7588C68.0336 64.7588 67.6017 65.1911 67.6017 65.7194V90.6936C67.6017 91.2219 68.0336 91.6542 68.5616 91.6542C69.0895 91.6542 69.5214 91.2219 69.5214 90.6936V65.7194C69.5214 65.1911 69.0895 64.7588 68.5616 64.7588ZM72.4011 68.601C71.8732 68.601 71.4412 69.0333 71.4412 69.5616V86.8514C71.4412 87.3797 71.8732 87.812 72.4011 87.812C72.929 87.812 73.361 87.3797 73.361 86.8514V69.5616C73.361 69.0333 72.929 68.601 72.4011 68.601Z" fill="#14B8A6"/>
<path d="M56.27 25.0101C58.4576 21.2004 63.3432 19.8718 67.1823 22.0426C71.0242 24.2151 72.3617 29.0684 70.1684 32.8787L39.7231 85.7706L25.8251 78.0317L56.27 25.0101Z" fill="#11191B"/>
</svg>
