<svg width="152" height="152" viewBox="0 0 152 152" fill="none" xmlns="http://www.w3.org/2000/svg">
<rect width="152" height="152" fill="white"/>
<path d="M67.7895 27.2302L56.7343 46.156C56.7343 46.156 60.7041 47.5188 65.5026 50.1752C70.2703 53.0297 73.1789 55.683 73.1789 55.683L83.6298 36.4596C83.6298 36.4596 82.9132 34.1325 76.4652 30.3942C69.9 26.6862 67.7895 27.2302 67.7895 27.2302ZM42.6177 102.669L43.47 108.478L73.1789 55.683C73.1789 55.683 69.5949 52.5112 65.5026 50.1752C61.263 47.7515 56.7343 46.156 56.7343 46.156L26.9534 99.0464L33.1953 97.0605L35.6371 103.715L42.6177 102.669ZM20 127.716L24.8091 104.372L30.3175 102.449L32.4349 108.811L39.4754 108.001L40.0906 113.368L22.3256 129L20 127.716Z" fill="#11191B"/>
<path d="M66.7107 28.8398C69.3127 24.2419 75.124 22.6384 79.6905 25.2583C84.2604 27.8803 85.8513 33.7377 83.2425 38.3364L47.0285 102.171L30.4972 92.8314L66.7107 28.8398Z" fill="#11191B"/>
<path d="M67.6331 39.8617C65.0166 35.2374 66.6187 29.353 71.2114 26.7185C75.8041 24.084 81.6483 25.6971 84.2647 30.3215L131.744 114.236C134.36 118.86 132.758 124.745 128.165 127.379C123.573 130.014 117.728 128.401 115.112 123.776L67.6331 39.8617Z" fill="#11191B"/>
<path d="M58.496 88.4052C57.868 88.4052 57.3542 88.9269 57.3542 89.5645V96.5202C57.3542 97.1578 57.868 97.6795 58.496 97.6795C59.1239 97.6795 59.6377 97.1578 59.6377 96.5202V89.5645C59.6377 88.9269 59.1239 88.4052 58.496 88.4052ZM90.4652 88.4052C89.8372 88.4052 89.3234 88.9269 89.3234 89.5645V96.5202C89.3234 97.1578 89.8372 97.6795 90.4652 97.6795C91.0931 97.6795 91.6069 97.1578 91.6069 96.5202V89.5645C91.6069 88.9269 91.0931 88.4052 90.4652 88.4052ZM63.063 81.4495C62.435 81.4495 61.9212 81.9712 61.9212 82.6088V103.476C61.9212 104.113 62.435 104.635 63.063 104.635C63.691 104.635 64.2048 104.113 64.2048 103.476V82.6088C64.2048 81.9712 63.691 81.4495 63.063 81.4495ZM67.63 86.0866C67.0021 86.0866 66.4883 86.6083 66.4883 87.2459V98.8387C66.4883 99.4763 67.0021 99.998 67.63 99.998C68.258 99.998 68.7718 99.4763 68.7718 98.8387V87.2459C68.7718 86.6083 68.258 86.0866 67.63 86.0866ZM72.1971 90.7238C71.5691 90.7238 71.0553 91.2454 71.0553 91.883V94.2016C71.0553 94.8392 71.5691 95.3609 72.1971 95.3609C72.825 95.3609 73.3388 94.8392 73.3388 94.2016V91.883C73.3388 91.2454 72.825 90.7238 72.1971 90.7238ZM76.7641 86.0866C76.1361 86.0866 75.6223 86.6083 75.6223 87.2459V98.8387C75.6223 99.4763 76.1361 99.998 76.7641 99.998C77.3921 99.998 77.9058 99.4763 77.9058 98.8387V87.2459C77.9058 86.6083 77.3921 86.0866 76.7641 86.0866ZM81.3311 76.8124C80.7032 76.8124 80.1894 77.3341 80.1894 77.9717V108.113C80.1894 108.751 80.7032 109.272 81.3311 109.272C81.9591 109.272 82.4729 108.751 82.4729 108.113V77.9717C82.4729 77.3341 81.9591 76.8124 81.3311 76.8124ZM85.8981 81.4495C85.2702 81.4495 84.7564 81.9712 84.7564 82.6088V103.476C84.7564 104.113 85.2702 104.635 85.8981 104.635C86.5261 104.635 87.0399 104.113 87.0399 103.476V82.6088C87.0399 81.9712 86.5261 81.4495 85.8981 81.4495Z" fill="#14B8A6"/>
<path d="M66.7107 28.8398C69.3127 24.2419 75.124 22.6384 79.6905 25.2583C84.2604 27.8803 85.8513 33.7377 83.2425 38.3364L47.0285 102.171L30.4972 92.8314L66.7107 28.8398Z" fill="#11191B"/>
</svg>
