<svg width="384" height="384" viewBox="0 0 384 384" fill="none" xmlns="http://www.w3.org/2000/svg">
<rect width="384" height="384" fill="white"/>
<path d="M166.985 48.4446L134.602 103.78C134.602 103.78 146.231 107.765 160.286 115.531C174.252 123.877 182.772 131.635 182.772 131.635L213.385 75.4294C213.385 75.4294 211.286 68.6254 192.398 57.6954C173.167 46.8538 166.985 48.4446 166.985 48.4446ZM93.2518 269.014L95.7483 285.998L182.772 131.635C182.772 131.635 172.274 122.361 160.286 115.531C147.868 108.445 134.602 103.78 134.602 103.78L47.368 258.421L65.6516 252.615L72.8042 272.073L93.2518 269.014ZM27 342.245L41.087 273.991L57.222 268.371L63.4243 286.971L84.0475 284.602L85.8495 300.296L33.8123 346L27 342.245Z" fill="#2D3F4E"/>
<path d="M163.825 53.1507C171.447 39.7072 188.469 35.0189 201.846 42.6792C215.232 50.3452 219.892 67.4713 212.25 80.9168L106.172 267.558L57.7484 240.25L163.825 53.1507Z" fill="#2D3F4E"/>
<path d="M166.527 85.3766C158.863 71.856 163.556 54.6511 177.009 46.9484C190.462 39.2457 207.58 43.9621 215.244 57.4828L354.32 302.833C361.984 316.354 357.291 333.559 343.838 341.262C330.385 348.964 313.266 344.248 305.602 330.727L166.527 85.3766Z" fill="#2D3F4E"/>
<path d="M139.763 227.309C137.923 227.309 136.418 228.834 136.418 230.698V251.035C136.418 252.899 137.923 254.425 139.763 254.425C141.602 254.425 143.107 252.899 143.107 251.035V230.698C143.107 228.834 141.602 227.309 139.763 227.309ZM233.407 227.309C231.567 227.309 230.062 228.834 230.062 230.698V251.035C230.062 252.899 231.567 254.425 233.407 254.425C235.246 254.425 236.751 252.899 236.751 251.035V230.698C236.751 228.834 235.246 227.309 233.407 227.309ZM153.14 206.971C151.301 206.971 149.796 208.497 149.796 210.361V271.372C149.796 273.237 151.301 274.762 153.14 274.762C154.98 274.762 156.485 273.237 156.485 271.372V210.361C156.485 208.497 154.98 206.971 153.14 206.971ZM166.518 220.53C164.679 220.53 163.174 222.055 163.174 223.919V257.814C163.174 259.678 164.679 261.204 166.518 261.204C168.358 261.204 169.863 259.678 169.863 257.814V223.919C169.863 222.055 168.358 220.53 166.518 220.53ZM179.896 234.088C178.056 234.088 176.551 235.613 176.551 237.477V244.256C176.551 246.12 178.056 247.646 179.896 247.646C181.735 247.646 183.24 246.12 183.24 244.256V237.477C183.24 235.613 181.735 234.088 179.896 234.088ZM193.274 220.53C191.434 220.53 189.929 222.055 189.929 223.919V257.814C189.929 259.678 191.434 261.204 193.274 261.204C195.113 261.204 196.618 259.678 196.618 257.814V223.919C196.618 222.055 195.113 220.53 193.274 220.53ZM206.651 193.413C204.812 193.413 203.307 194.939 203.307 196.803V284.93C203.307 286.795 204.812 288.32 206.651 288.32C208.491 288.32 209.996 286.795 209.996 284.93V196.803C209.996 194.939 208.491 193.413 206.651 193.413ZM220.029 206.971C218.19 206.971 216.685 208.497 216.685 210.361V271.372C216.685 273.237 218.19 274.762 220.029 274.762C221.869 274.762 223.374 273.237 223.374 271.372V210.361C223.374 208.497 221.869 206.971 220.029 206.971Z" fill="#629BEA"/>
<path d="M163.825 53.1507C171.447 39.7072 188.469 35.0189 201.846 42.6792C215.232 50.3452 219.892 67.4713 212.25 80.9168L106.172 267.558L57.7484 240.25L163.825 53.1507Z" fill="#2D3F4E"/>
</svg>
