<svg width="96" height="96" viewBox="0 0 96 96" fill="none" xmlns="http://www.w3.org/2000/svg">
<rect width="96" height="96" fill="white"/>
<path d="M43.0666 19.8151L36.8053 30.4495C36.8053 30.4495 39.0537 31.2153 41.7714 32.708C44.4717 34.3119 46.119 35.8028 46.119 35.8028L52.0381 25.0011C52.0381 25.0011 51.6322 23.6935 47.9803 21.5929C44.262 19.5094 43.0666 19.8151 43.0666 19.8151ZM28.81 62.2047L29.2927 65.4687L46.119 35.8028C46.119 35.8028 44.0892 34.0206 41.7714 32.708C39.3702 31.3461 36.8053 30.4495 36.8053 30.4495L19.9382 60.1689L23.4734 59.0531L24.8564 62.7925L28.81 62.2047ZM16 76.2783L18.7238 63.1612L21.8435 62.081L23.0428 65.6557L27.0303 65.2004L27.3787 68.2165L17.3172 77L16 76.2783Z" fill="#11191B"/>
<path d="M42.4556 20.7195C43.9293 18.1359 47.2207 17.2349 49.807 18.7071C52.3953 20.1803 53.2963 23.4717 51.8187 26.0557L31.3082 61.9249L21.9453 56.6767L42.4556 20.7195Z" fill="#11191B"/>
<path d="M42.978 26.9128C41.4961 24.3143 42.4035 21.0079 45.0047 19.5275C47.6059 18.0472 50.9158 18.9536 52.3977 21.5521L79.2884 68.7041C80.7703 71.3025 79.8629 74.609 77.2617 76.0893C74.6605 77.5697 71.3506 76.6633 69.8687 74.0648L42.978 26.9128Z" fill="#11191B"/>
<path d="M37.803 54.1896C37.4474 54.1896 37.1564 54.4827 37.1564 54.841V58.7494C37.1564 59.1077 37.4474 59.4008 37.803 59.4008C38.1587 59.4008 38.4497 59.1077 38.4497 58.7494V54.841C38.4497 54.4827 38.1587 54.1896 37.803 54.1896ZM55.9095 54.1896C55.5538 54.1896 55.2628 54.4827 55.2628 54.841V58.7494C55.2628 59.1077 55.5538 59.4008 55.9095 59.4008C56.2651 59.4008 56.5561 59.1077 56.5561 58.7494V54.841C56.5561 54.4827 56.2651 54.1896 55.9095 54.1896ZM40.3897 50.2812C40.034 50.2812 39.743 50.5743 39.743 50.9326V62.6579C39.743 63.0161 40.034 63.3093 40.3897 63.3093C40.7453 63.3093 41.0363 63.0161 41.0363 62.6579V50.9326C41.0363 50.5743 40.7453 50.2812 40.3897 50.2812ZM42.9763 52.8868C42.6206 52.8868 42.3296 53.1799 42.3296 53.5382V60.0522C42.3296 60.4105 42.6206 60.7037 42.9763 60.7037C43.332 60.7037 43.623 60.4105 43.623 60.0522V53.5382C43.623 53.1799 43.332 52.8868 42.9763 52.8868ZM45.5629 55.4924C45.2073 55.4924 44.9163 55.7855 44.9163 56.1438V57.4466C44.9163 57.8049 45.2073 58.098 45.5629 58.098C45.9186 58.098 46.2096 57.8049 46.2096 57.4466V56.1438C46.2096 55.7855 45.9186 55.4924 45.5629 55.4924ZM48.1496 52.8868C47.7939 52.8868 47.5029 53.1799 47.5029 53.5382V60.0522C47.5029 60.4105 47.7939 60.7037 48.1496 60.7037C48.5052 60.7037 48.7962 60.4105 48.7962 60.0522V53.5382C48.7962 53.1799 48.5052 52.8868 48.1496 52.8868ZM50.7362 47.6755C50.3805 47.6755 50.0896 47.9687 50.0896 48.3269V65.2635C50.0896 65.6218 50.3805 65.9149 50.7362 65.9149C51.0919 65.9149 51.3829 65.6218 51.3829 65.2635V48.3269C51.3829 47.9687 51.0919 47.6755 50.7362 47.6755ZM53.3228 50.2812C52.9672 50.2812 52.6762 50.5743 52.6762 50.9326V62.6579C52.6762 63.0161 52.9672 63.3093 53.3228 63.3093C53.6785 63.3093 53.9695 63.0161 53.9695 62.6579V50.9326C53.9695 50.5743 53.6785 50.2812 53.3228 50.2812Z" fill="#14B8A6"/>
<path d="M42.4556 20.7195C43.9293 18.1359 47.2207 17.2349 49.807 18.7071C52.3953 20.1803 53.2963 23.4717 51.8187 26.0557L31.3082 61.9249L21.9453 56.6767L42.4556 20.7195Z" fill="#11191B"/>
</svg>
