<svg width="384" height="384" viewBox="0 0 384 384" fill="none" xmlns="http://www.w3.org/2000/svg">
<rect width="384" height="384" fill="white"/>
<path d="M169.606 63.4602L140.549 113.028C140.549 113.028 150.983 116.597 163.595 123.554C176.126 131.03 183.771 137.979 183.771 137.979L211.239 87.6322C211.239 87.6322 209.356 81.5374 192.409 71.7467C175.153 62.0352 169.606 63.4602 169.606 63.4602ZM103.446 261.039L105.687 276.252L183.771 137.979C183.771 137.979 174.351 129.672 163.595 123.554C152.452 117.206 140.549 113.028 140.549 113.028L62.2758 251.55L78.6814 246.349L85.0992 263.778L103.446 261.039ZM44 326.636L56.64 265.497L71.1177 260.462L76.6828 277.124L95.1876 275.002L96.8045 289.06L50.1125 330L44 326.636Z" fill="#11191B"/>
<path d="M166.771 67.6758C173.61 55.6335 188.883 51.4339 200.886 58.2957C212.897 65.1626 217.078 80.5036 210.221 92.5476L115.039 259.735L71.5899 235.273L166.771 67.6758Z" fill="#11191B"/>
<path d="M169.195 96.5426C162.318 84.4313 166.529 69.0197 178.6 62.1199C190.671 55.2201 206.031 59.4449 212.908 71.5562L337.698 291.333C344.575 303.444 340.364 318.856 328.293 325.755C316.222 332.655 300.861 328.43 293.984 316.319L169.195 96.5426Z" fill="#11191B"/>
<path d="M145.18 223.68C143.529 223.68 142.179 225.047 142.179 226.716V244.934C142.179 246.604 143.529 247.97 145.18 247.97C146.83 247.97 148.181 246.604 148.181 244.934V226.716C148.181 225.047 146.83 223.68 145.18 223.68ZM229.205 223.68C227.554 223.68 226.204 225.047 226.204 226.716V244.934C226.204 246.604 227.554 247.97 229.205 247.97C230.855 247.97 232.206 246.604 232.206 244.934V226.716C232.206 225.047 230.855 223.68 229.205 223.68ZM157.183 205.463C155.533 205.463 154.182 206.829 154.182 208.499V263.151C154.182 264.821 155.533 266.187 157.183 266.187C158.834 266.187 160.184 264.821 160.184 263.151V208.499C160.184 206.829 158.834 205.463 157.183 205.463ZM169.187 217.608C167.536 217.608 166.186 218.974 166.186 220.644V251.006C166.186 252.676 167.536 254.042 169.187 254.042C170.837 254.042 172.188 252.676 172.188 251.006V220.644C172.188 218.974 170.837 217.608 169.187 217.608ZM181.191 229.753C179.54 229.753 178.19 231.119 178.19 232.789V238.861C178.19 240.531 179.54 241.898 181.191 241.898C182.841 241.898 184.191 240.531 184.191 238.861V232.789C184.191 231.119 182.841 229.753 181.191 229.753ZM193.194 217.608C191.544 217.608 190.193 218.974 190.193 220.644V251.006C190.193 252.676 191.544 254.042 193.194 254.042C194.845 254.042 196.195 252.676 196.195 251.006V220.644C196.195 218.974 194.845 217.608 193.194 217.608ZM205.198 193.318C203.547 193.318 202.197 194.684 202.197 196.354V275.296C202.197 276.966 203.547 278.332 205.198 278.332C206.848 278.332 208.199 276.966 208.199 275.296V196.354C208.199 194.684 206.848 193.318 205.198 193.318ZM217.201 205.463C215.551 205.463 214.2 206.829 214.2 208.499V263.151C214.2 264.821 215.551 266.187 217.201 266.187C218.852 266.187 220.202 264.821 220.202 263.151V208.499C220.202 206.829 218.852 205.463 217.201 205.463Z" fill="#14B8A6"/>
<path d="M166.771 67.6758C173.61 55.6335 188.883 51.4339 200.886 58.2957C212.897 65.1626 217.078 80.5036 210.221 92.5476L115.039 259.735L71.5899 235.273L166.771 67.6758Z" fill="#11191B"/>
</svg>
