<svg width="96" height="96" viewBox="0 0 96 96" fill="none" xmlns="http://www.w3.org/2000/svg">
<rect width="96" height="96" fill="white"/>
<path d="M41.7538 15.1877L34.4163 27.6246C34.4163 27.6246 37.0512 28.5202 40.236 30.2658C43.4004 32.1416 45.3309 33.8852 45.3309 33.8852L52.2674 21.2527C52.2674 21.2527 51.7917 19.7234 47.5121 17.2668C43.1547 14.8301 41.7538 15.1877 41.7538 15.1877ZM25.0469 64.762L25.6126 68.5792L45.3309 33.8852C45.3309 33.8852 42.9522 31.8009 40.236 30.2658C37.4221 28.6731 34.4163 27.6246 34.4163 27.6246L14.6503 62.3811L18.7931 61.0761L20.4137 65.4493L25.0469 64.762ZM10.0352 81.2209L13.2271 65.8806L16.8831 64.6173L18.2884 68.7979L22.9613 68.2655L23.3696 71.7927L11.5787 82.0649L10.0352 81.2209Z" fill="#2D3F4E"/>
<path d="M41.0378 16.2454C42.7648 13.2239 46.6219 12.1702 49.6527 13.8919C52.6859 15.6148 53.7418 19.464 52.0102 22.486L27.9744 64.4347L17.0023 58.297L41.0378 16.2454Z" fill="#2D3F4E"/>
<path d="M41.65 23.4884C39.9134 20.4495 40.9768 16.5826 44.025 14.8514C47.0733 13.1202 50.9521 14.1802 52.6887 17.2191L84.2012 72.363C85.9378 75.4018 84.8745 79.2687 81.8262 80.9999C78.778 82.7312 74.8991 81.6711 73.1625 78.6323L41.65 23.4884Z" fill="#2D3F4E"/>
<path d="M35.5856 55.3884C35.1688 55.3884 34.8278 55.7312 34.8278 56.1502V60.7211C34.8278 61.14 35.1688 61.4829 35.5856 61.4829C36.0024 61.4829 36.3434 61.14 36.3434 60.7211V56.1502C36.3434 55.7312 36.0024 55.3884 35.5856 55.3884ZM56.8041 55.3884C56.3873 55.3884 56.0463 55.7312 56.0463 56.1502V60.7211C56.0463 61.14 56.3873 61.4829 56.8041 61.4829C57.2209 61.4829 57.5619 61.14 57.5619 60.7211V56.1502C57.5619 55.7312 57.2209 55.3884 56.8041 55.3884ZM38.6168 50.8175C38.2 50.8175 37.859 51.1603 37.859 51.5793V65.2919C37.859 65.7109 38.2 66.0537 38.6168 66.0537C39.0336 66.0537 39.3746 65.7109 39.3746 65.2919V51.5793C39.3746 51.1603 39.0336 50.8175 38.6168 50.8175ZM41.648 53.8647C41.2312 53.8647 40.8902 54.2075 40.8902 54.6265V62.2447C40.8902 62.6637 41.2312 63.0065 41.648 63.0065C42.0648 63.0065 42.4058 62.6637 42.4058 62.2447V54.6265C42.4058 54.2075 42.0648 53.8647 41.648 53.8647ZM44.6792 56.912C44.2624 56.912 43.9214 57.2548 43.9214 57.6738V59.1974C43.9214 59.6164 44.2624 59.9592 44.6792 59.9592C45.096 59.9592 45.437 59.6164 45.437 59.1974V57.6738C45.437 57.2548 45.096 56.912 44.6792 56.912ZM47.7104 53.8647C47.2936 53.8647 46.9526 54.2075 46.9526 54.6265V62.2447C46.9526 62.6637 47.2936 63.0065 47.7104 63.0065C48.1272 63.0065 48.4682 62.6637 48.4682 62.2447V54.6265C48.4682 54.2075 48.1272 53.8647 47.7104 53.8647ZM50.7417 47.7702C50.3249 47.7702 49.9838 48.113 49.9838 48.532V68.3392C49.9838 68.7582 50.3249 69.101 50.7417 69.101C51.1584 69.101 51.4995 68.7582 51.4995 68.3392V48.532C51.4995 48.113 51.1584 47.7702 50.7417 47.7702ZM53.7729 50.8175C53.3561 50.8175 53.0151 51.1603 53.0151 51.5793V65.2919C53.0151 65.7109 53.3561 66.0537 53.7729 66.0537C54.1897 66.0537 54.5307 65.7109 54.5307 65.2919V51.5793C54.5307 51.1603 54.1897 50.8175 53.7729 50.8175Z" fill="#629BEA"/>
<path d="M41.0378 16.2454C42.7648 13.2239 46.6219 12.1702 49.6527 13.8919C52.6859 15.6148 53.7418 19.464 52.0102 22.486L27.9744 64.4347L17.0023 58.297L41.0378 16.2454Z" fill="#2D3F4E"/>
</svg>
