<svg width="152" height="152" viewBox="0 0 152 152" fill="none" xmlns="http://www.w3.org/2000/svg">
<rect width="152" height="152" fill="white"/>
<path d="M66.7103 21.5994L54.2854 42.6881C54.2854 42.6881 58.7471 44.2067 64.1401 47.1667C69.4985 50.3474 72.7675 53.3039 72.7675 53.3039L84.5132 31.8835C84.5132 31.8835 83.7077 29.2905 76.4609 25.125C69.0824 20.9932 66.7103 21.5994 66.7103 21.5994ZM38.4199 105.66L39.3778 112.133L72.7675 53.3039C72.7675 53.3039 68.7395 49.7697 64.1401 47.1667C59.3753 44.466 54.2854 42.6881 54.2854 42.6881L20.8149 101.623L27.8301 99.4103L30.5744 106.826L38.4199 105.66ZM13 133.569L18.405 107.557L24.5958 105.415L26.9755 112.504L34.8883 111.601L35.5797 117.582L15.6138 135L13 133.569Z" fill="#2D3F4E"/>
<path d="M65.4979 23.393C68.4223 18.2695 74.9535 16.4828 80.0858 19.4022C85.2219 22.3237 87.0099 28.8506 84.0778 33.9748L43.3771 105.105L24.7977 94.6978L65.4979 23.393Z" fill="#2D3F4E"/>
<path d="M66.5345 35.6745C63.5939 30.5217 65.3945 23.9647 70.5562 21.0292C75.7179 18.0936 82.2861 19.8911 85.2267 25.0439L138.588 118.549C141.528 123.702 139.728 130.259 134.566 133.194C129.405 136.13 122.836 134.332 119.896 129.179L66.5345 35.6745Z" fill="#2D3F4E"/>
<path d="M56.2654 89.7658C55.5596 89.7658 54.9822 90.3471 54.9822 91.0576V98.8082C54.9822 99.5187 55.5596 100.1 56.2654 100.1C56.9712 100.1 57.5486 99.5187 57.5486 98.8082V91.0576C57.5486 90.3471 56.9712 89.7658 56.2654 89.7658ZM92.1954 89.7658C91.4896 89.7658 90.9122 90.3471 90.9122 91.0576V98.8082C90.9122 99.5187 91.4896 100.1 92.1954 100.1C92.9011 100.1 93.4786 99.5187 93.4786 98.8082V91.0576C93.4786 90.3471 92.9011 89.7658 92.1954 89.7658ZM61.3982 82.0152C60.6925 82.0152 60.115 82.5965 60.115 83.3069V106.559C60.115 107.269 60.6925 107.851 61.3982 107.851C62.104 107.851 62.6815 107.269 62.6815 106.559V83.3069C62.6815 82.5965 62.104 82.0152 61.3982 82.0152ZM66.5311 87.1823C65.8253 87.1823 65.2479 87.7636 65.2479 88.474V101.392C65.2479 102.102 65.8253 102.684 66.5311 102.684C67.2369 102.684 67.8143 102.102 67.8143 101.392V88.474C67.8143 87.7636 67.2369 87.1823 66.5311 87.1823ZM71.664 92.3493C70.9582 92.3493 70.3807 92.9306 70.3807 93.6411V96.2247C70.3807 96.9351 70.9582 97.5164 71.664 97.5164C72.3697 97.5164 72.9472 96.9351 72.9472 96.2247V93.6411C72.9472 92.9306 72.3697 92.3493 71.664 92.3493ZM76.7968 87.1823C76.091 87.1823 75.5136 87.7636 75.5136 88.474V101.392C75.5136 102.102 76.091 102.684 76.7968 102.684C77.5026 102.684 78.08 102.102 78.08 101.392V88.474C78.08 87.7636 77.5026 87.1823 76.7968 87.1823ZM81.9297 76.8481C81.2239 76.8481 80.6465 77.4294 80.6465 78.1399V111.726C80.6465 112.436 81.2239 113.018 81.9297 113.018C82.6354 113.018 83.2129 112.436 83.2129 111.726V78.1399C83.2129 77.4294 82.6354 76.8481 81.9297 76.8481ZM87.0625 82.0152C86.3567 82.0152 85.7793 82.5965 85.7793 83.3069V106.559C85.7793 107.269 86.3567 107.851 87.0625 107.851C87.7683 107.851 88.3457 107.269 88.3457 106.559V83.3069C88.3457 82.5965 87.7683 82.0152 87.0625 82.0152Z" fill="#629BEA"/>
<path d="M65.4979 23.393C68.4223 18.2695 74.9535 16.4828 80.0858 19.4022C85.2219 22.3237 87.0099 28.8506 84.0778 33.9748L43.3771 105.105L24.7977 94.6978L65.4979 23.393Z" fill="#2D3F4E"/>
</svg>
