<svg width="72" height="72" viewBox="0 0 72 72" fill="none" xmlns="http://www.w3.org/2000/svg">
<rect width="72" height="72" fill="white"/>
<path d="M32.0312 16.2613L27.6287 23.6514C27.6287 23.6514 29.2096 24.1835 31.1205 25.2208C33.0192 26.3354 34.1775 27.3714 34.1775 27.3714L38.3393 19.8652C38.3393 19.8652 38.0539 18.9565 35.4862 17.4968C32.8717 16.0489 32.0312 16.2613 32.0312 16.2613ZM22.007 45.7185L22.3465 47.9867L34.1775 27.3714C34.1775 27.3714 32.7502 26.133 31.1205 25.2208C29.4322 24.2744 27.6287 23.6514 27.6287 23.6514L15.7691 44.3038L18.2548 43.5284L19.2272 46.127L22.007 45.7185ZM13 55.4985L14.9151 46.3832L17.1087 45.6326L17.9519 48.1167L20.7557 47.8003L21.0007 49.8962L13.9261 56L13 55.4985Z" fill="#11191B"/>
<path d="M31.6016 16.8898C32.6378 15.0944 34.952 14.4683 36.7705 15.4914C38.5904 16.5152 39.224 18.8024 38.1851 20.598L23.7636 45.5241L17.1803 41.877L31.6016 16.8898Z" fill="#11191B"/>
<path d="M31.9689 21.1936C30.927 19.3879 31.565 17.0902 33.3939 16.0615C35.2229 15.0328 37.5502 15.6627 38.5921 17.4684L57.4996 50.2351C58.5416 52.0408 57.9036 54.3385 56.0746 55.3672C54.2457 56.3959 51.9184 55.766 50.8764 53.9603L31.9689 21.1936Z" fill="#11191B"/>
<path d="M28.3303 40.1487C28.0802 40.1487 27.8756 40.3524 27.8756 40.6014V43.3174C27.8756 43.5664 28.0802 43.7701 28.3303 43.7701C28.5803 43.7701 28.7849 43.5664 28.7849 43.3174V40.6014C28.7849 40.3524 28.5803 40.1487 28.3303 40.1487ZM41.0614 40.1487C40.8113 40.1487 40.6067 40.3524 40.6067 40.6014V43.3174C40.6067 43.5664 40.8113 43.7701 41.0614 43.7701C41.3114 43.7701 41.516 43.5664 41.516 43.3174V40.6014C41.516 40.3524 41.3114 40.1487 41.0614 40.1487ZM30.149 37.4327C29.8989 37.4327 29.6943 37.6364 29.6943 37.8853V46.0334C29.6943 46.2824 29.8989 46.4861 30.149 46.4861C30.3991 46.4861 30.6037 46.2824 30.6037 46.0334V37.8853C30.6037 37.6364 30.3991 37.4327 30.149 37.4327ZM31.9677 39.2434C31.7176 39.2434 31.513 39.4471 31.513 39.696V44.2227C31.513 44.4717 31.7176 44.6754 31.9677 44.6754C32.2178 44.6754 32.4224 44.4717 32.4224 44.2227V39.696C32.4224 39.4471 32.2178 39.2434 31.9677 39.2434ZM33.7864 41.054C33.5364 41.054 33.3318 41.2577 33.3318 41.5067V42.4121C33.3318 42.661 33.5364 42.8647 33.7864 42.8647C34.0365 42.8647 34.2411 42.661 34.2411 42.4121V41.5067C34.2411 41.2577 34.0365 41.054 33.7864 41.054ZM35.6052 39.2434C35.3551 39.2434 35.1505 39.4471 35.1505 39.696V44.2227C35.1505 44.4717 35.3551 44.6754 35.6052 44.6754C35.8552 44.6754 36.0599 44.4717 36.0599 44.2227V39.696C36.0599 39.4471 35.8552 39.2434 35.6052 39.2434ZM37.4239 35.622C37.1738 35.622 36.9692 35.8257 36.9692 36.0747V47.8441C36.9692 48.0931 37.1738 48.2968 37.4239 48.2968C37.674 48.2968 37.8786 48.0931 37.8786 47.8441V36.0747C37.8786 35.8257 37.674 35.622 37.4239 35.622ZM39.2426 37.4327C38.9925 37.4327 38.7879 37.6364 38.7879 37.8853V46.0334C38.7879 46.2824 38.9925 46.4861 39.2426 46.4861C39.4927 46.4861 39.6973 46.2824 39.6973 46.0334V37.8853C39.6973 37.6364 39.4927 37.4327 39.2426 37.4327Z" fill="#14B8A6"/>
<path d="M31.6016 16.8898C32.6378 15.0944 34.952 14.4683 36.7705 15.4914C38.5904 16.5152 39.224 18.8024 38.1851 20.598L23.7636 45.5241L17.1803 41.877L31.6016 16.8898Z" fill="#11191B"/>
</svg>
