<svg width="128" height="128" viewBox="0 0 128 128" fill="none" xmlns="http://www.w3.org/2000/svg">
<rect width="128" height="128" fill="white"/>
<path d="M56.4061 18.9841L46.1336 36.4679C46.1336 36.4679 49.8224 37.7269 54.2812 40.1809C58.7114 42.8179 61.4141 45.269 61.4141 45.269L71.1251 27.5103C71.1251 27.5103 70.4592 25.3605 64.4677 21.907C58.3673 18.4815 56.4061 18.9841 56.4061 18.9841ZM33.0164 88.6756L33.8084 94.0417L61.4141 45.269C61.4141 45.269 58.0838 42.339 54.2812 40.1809C50.3418 37.9419 46.1336 36.4679 46.1336 36.4679L18.4611 85.3286L24.2611 83.494L26.53 89.6418L33.0164 88.6756ZM12 111.813L16.4687 90.2481L21.5871 88.4722L23.5545 94.3492L30.0966 93.6007L30.6683 98.5593L14.161 113L12 111.813Z" fill="#2D3F4E"/>
<path d="M55.4037 20.4711C57.8216 16.2234 63.2214 14.7421 67.4646 17.1625C71.711 19.5846 73.1893 24.9958 70.7651 29.2441L37.115 88.2155L21.754 79.5871L55.4037 20.4711Z" fill="#2D3F4E"/>
<path d="M56.2608 30.6532C53.8296 26.3812 55.3183 20.9451 59.5858 18.5114C63.8534 16.0776 69.2838 17.5678 71.715 21.8398L115.833 99.361C118.264 103.633 116.775 109.069 112.508 111.503C108.24 113.937 102.81 112.446 100.378 108.174L56.2608 30.6532Z" fill="#2D3F4E"/>
<path d="M47.7706 75.4981C47.1871 75.4981 46.7097 75.9801 46.7097 76.5691V82.9948C46.7097 83.5838 47.1871 84.0658 47.7706 84.0658C48.3541 84.0658 48.8315 83.5838 48.8315 82.9948V76.5691C48.8315 75.9801 48.3541 75.4981 47.7706 75.4981ZM77.4765 75.4981C76.893 75.4981 76.4156 75.9801 76.4156 76.5691V82.9948C76.4156 83.5838 76.893 84.0658 77.4765 84.0658C78.06 84.0658 78.5374 83.5838 78.5374 82.9948V76.5691C78.5374 75.9801 78.06 75.4981 77.4765 75.4981ZM52.0143 69.0724C51.4308 69.0724 50.9534 69.5543 50.9534 70.1434V89.4206C50.9534 90.0096 51.4308 90.4915 52.0143 90.4915C52.5978 90.4915 53.0752 90.0096 53.0752 89.4206V70.1434C53.0752 69.5543 52.5978 69.0724 52.0143 69.0724ZM56.258 73.3562C55.6745 73.3562 55.1971 73.8382 55.1971 74.4272V85.1367C55.1971 85.7258 55.6745 86.2077 56.258 86.2077C56.8415 86.2077 57.3189 85.7258 57.3189 85.1367V74.4272C57.3189 73.8382 56.8415 73.3562 56.258 73.3562ZM60.5017 77.64C59.9182 77.64 59.4408 78.122 59.4408 78.711V80.8529C59.4408 81.4419 59.9182 81.9239 60.5017 81.9239C61.0852 81.9239 61.5626 81.4419 61.5626 80.8529V78.711C61.5626 78.122 61.0852 77.64 60.5017 77.64ZM64.7454 73.3562C64.1619 73.3562 63.6845 73.8382 63.6845 74.4272V85.1367C63.6845 85.7258 64.1619 86.2077 64.7454 86.2077C65.3289 86.2077 65.8063 85.7258 65.8063 85.1367V74.4272C65.8063 73.8382 65.3289 73.3562 64.7454 73.3562ZM68.9891 64.7886C68.4056 64.7886 67.9282 65.2705 67.9282 65.8595V93.7044C67.9282 94.2934 68.4056 94.7753 68.9891 94.7753C69.5726 94.7753 70.05 94.2934 70.05 93.7044V65.8595C70.05 65.2705 69.5726 64.7886 68.9891 64.7886ZM73.2328 69.0724C72.6493 69.0724 72.1719 69.5543 72.1719 70.1434V89.4206C72.1719 90.0096 72.6493 90.4915 73.2328 90.4915C73.8163 90.4915 74.2937 90.0096 74.2937 89.4206V70.1434C74.2937 69.5543 73.8163 69.0724 73.2328 69.0724Z" fill="#629BEA"/>
<path d="M55.4037 20.4711C57.8216 16.2234 63.2214 14.7421 67.4646 17.1625C71.711 19.5846 73.1893 24.9958 70.7651 29.2441L37.115 88.2155L21.754 79.5871L55.4037 20.4711Z" fill="#2D3F4E"/>
</svg>
