<svg width="512" height="512" viewBox="0 0 512 512" fill="none" xmlns="http://www.w3.org/2000/svg">
<rect width="512" height="512" fill="white"/>
<path d="M227.747 93.6752L191.256 156.22C191.256 156.22 204.36 160.724 220.199 169.503C235.937 178.936 245.538 187.705 245.538 187.705L280.035 124.176C280.035 124.176 277.669 116.485 256.385 104.131C234.714 91.8771 227.747 93.6752 227.747 93.6752ZM144.658 342.984L147.472 362.18L245.538 187.705C245.538 187.705 233.707 177.223 220.199 169.503C206.205 161.493 191.256 156.22 191.256 156.22L92.9524 331.01L113.556 324.448L121.616 346.44L144.658 342.984ZM70 425.755L85.8744 348.609L104.057 342.256L111.046 363.28L134.286 360.603L136.317 378.341L77.6766 430L70 425.755Z" fill="#11191B"/>
<path d="M224.187 98.9945C232.776 83.7993 251.958 78.5002 267.031 87.1585C282.116 95.8234 287.368 115.181 278.756 130.378L159.218 341.338L104.65 310.471L224.187 98.9945Z" fill="#11191B"/>
<path d="M227.231 135.419C218.595 120.137 223.883 100.69 239.043 91.984C254.203 83.2777 273.494 88.6087 282.13 103.891L438.853 381.209C447.489 396.491 442.201 415.938 427.041 424.644C411.881 433.35 392.59 428.019 383.954 412.737L227.231 135.419Z" fill="#11191B"/>
<path d="M197.071 295.844C194.998 295.844 193.302 297.568 193.302 299.675V322.662C193.302 324.769 194.998 326.493 197.071 326.493C199.144 326.493 200.84 324.769 200.84 322.662V299.675C200.84 297.568 199.144 295.844 197.071 295.844ZM302.597 295.844C300.525 295.844 298.829 297.568 298.829 299.675V322.662C298.829 324.769 300.525 326.493 302.597 326.493C304.67 326.493 306.366 324.769 306.366 322.662V299.675C306.366 297.568 304.67 295.844 302.597 295.844ZM212.146 272.857C210.073 272.857 208.377 274.581 208.377 276.688V345.649C208.377 347.756 210.073 349.48 212.146 349.48C214.219 349.48 215.915 347.756 215.915 345.649V276.688C215.915 274.581 214.219 272.857 212.146 272.857ZM227.221 288.182C225.148 288.182 223.452 289.906 223.452 292.013V330.324C223.452 332.431 225.148 334.155 227.221 334.155C229.294 334.155 230.99 332.431 230.99 330.324V292.013C230.99 289.906 229.294 288.182 227.221 288.182ZM242.296 303.506C240.224 303.506 238.528 305.23 238.528 307.337V315C238.528 317.107 240.224 318.831 242.296 318.831C244.369 318.831 246.065 317.107 246.065 315V307.337C246.065 305.23 244.369 303.506 242.296 303.506ZM257.372 288.182C255.299 288.182 253.603 289.906 253.603 292.013V330.324C253.603 332.431 255.299 334.155 257.372 334.155C259.445 334.155 261.141 332.431 261.141 330.324V292.013C261.141 289.906 259.445 288.182 257.372 288.182ZM272.447 257.532C270.374 257.532 268.678 259.256 268.678 261.363V360.973C268.678 363.081 270.374 364.805 272.447 364.805C274.52 364.805 276.216 363.081 276.216 360.973V261.363C276.216 259.256 274.52 257.532 272.447 257.532ZM287.522 272.857C285.449 272.857 283.753 274.581 283.753 276.688V345.649C283.753 347.756 285.449 349.48 287.522 349.48C289.595 349.48 291.291 347.756 291.291 345.649V276.688C291.291 274.581 289.595 272.857 287.522 272.857Z" fill="#14B8A6"/>
<path d="M224.187 98.9945C232.776 83.7993 251.958 78.5002 267.031 87.1585C282.116 95.8234 287.368 115.181 278.756 130.378L159.218 341.338L104.65 310.471L224.187 98.9945Z" fill="#11191B"/>
</svg>
