<svg width="192" height="192" viewBox="0 0 192 192" fill="none" xmlns="http://www.w3.org/2000/svg">
<rect width="192" height="192" fill="white"/>
<path d="M83.7811 24.7069L67.6386 52.2844C67.6386 52.2844 73.4352 54.2703 80.4419 58.141C87.4036 62.3004 91.6507 66.1666 91.6507 66.1666L106.911 38.1554C106.911 38.1554 105.864 34.7644 96.4493 29.3173C86.8629 23.9141 83.7811 24.7069 83.7811 24.7069ZM47.0258 134.633L48.2703 143.097L91.6507 66.1666C91.6507 66.1666 86.4174 61.5449 80.4419 58.141C74.2514 54.6094 67.6386 52.2844 67.6386 52.2844L24.1532 129.353L33.2674 126.46L36.8329 136.157L47.0258 134.633ZM14 171.128L21.0222 137.113L29.0654 134.312L32.1571 143.582L42.4376 142.401L43.3358 150.222L17.3958 173L14 171.128Z" fill="#2D3F4E"/>
<path d="M82.2059 27.0523C86.0053 20.3524 94.4908 18.0159 101.159 21.8336C107.832 25.6541 110.155 34.1893 106.345 40.8901L53.4664 133.907L29.3277 120.297L82.2059 27.0523Z" fill="#2D3F4E"/>
<path d="M83.5527 43.1128C79.7322 36.3745 82.0716 27.8 88.7777 23.9612C95.4839 20.1225 104.017 22.473 107.838 29.2113L177.165 151.487C180.986 158.225 178.647 166.8 171.94 170.638C165.234 174.477 156.701 172.127 152.88 165.388L83.5527 43.1128Z" fill="#2D3F4E"/>
<path d="M70.2109 113.848C69.294 113.848 68.5438 114.608 68.5438 115.537V125.672C68.5438 126.601 69.294 127.361 70.2109 127.361C71.1279 127.361 71.8781 126.601 71.8781 125.672V115.537C71.8781 114.608 71.1279 113.848 70.2109 113.848ZM116.892 113.848C115.975 113.848 115.224 114.608 115.224 115.537V125.672C115.224 126.601 115.975 127.361 116.892 127.361C117.809 127.361 118.559 126.601 118.559 125.672V115.537C118.559 114.608 117.809 113.848 116.892 113.848ZM76.8796 103.712C75.9627 103.712 75.2124 104.472 75.2124 105.401V135.808C75.2124 136.737 75.9627 137.497 76.8796 137.497C77.7965 137.497 78.5468 136.737 78.5468 135.808V105.401C78.5468 104.472 77.7965 103.712 76.8796 103.712ZM83.5483 110.469C82.6313 110.469 81.8811 111.229 81.8811 112.158V129.051C81.8811 129.98 82.6313 130.74 83.5483 130.74C84.4652 130.74 85.2154 129.98 85.2154 129.051V112.158C85.2154 111.229 84.4652 110.469 83.5483 110.469ZM90.2169 117.226C89.3 117.226 88.5498 117.986 88.5498 118.915V122.294C88.5498 123.223 89.3 123.983 90.2169 123.983C91.1339 123.983 91.8841 123.223 91.8841 122.294V118.915C91.8841 117.986 91.1339 117.226 90.2169 117.226ZM96.8856 110.469C95.9687 110.469 95.2185 111.229 95.2185 112.158V129.051C95.2185 129.98 95.9687 130.74 96.8856 130.74C97.8026 130.74 98.5528 129.98 98.5528 129.051V112.158C98.5528 111.229 97.8026 110.469 96.8856 110.469ZM103.554 96.9552C102.637 96.9552 101.887 97.7153 101.887 98.6444V142.565C101.887 143.494 102.637 144.254 103.554 144.254C104.471 144.254 105.221 143.494 105.221 142.565V98.6444C105.221 97.7153 104.471 96.9552 103.554 96.9552ZM110.223 103.712C109.306 103.712 108.556 104.472 108.556 105.401V135.808C108.556 136.737 109.306 137.497 110.223 137.497C111.14 137.497 111.89 136.737 111.89 135.808V105.401C111.89 104.472 111.14 103.712 110.223 103.712Z" fill="#629BEA"/>
<path d="M82.2059 27.0523C86.0053 20.3524 94.4908 18.0159 101.159 21.8336C107.832 25.6541 110.155 34.1893 106.345 40.8901L53.4664 133.907L29.3277 120.297L82.2059 27.0523Z" fill="#2D3F4E"/>
</svg>
