<svg width="72" height="72" viewBox="0 0 72 72" fill="none" xmlns="http://www.w3.org/2000/svg">
<rect width="72" height="72" fill="white"/>
<path d="M31.5982 13.4499L26.6019 21.9448C26.6019 21.9448 28.396 22.5565 30.5647 23.7488C32.7195 25.0301 34.034 26.221 34.034 26.221L38.7572 17.5925C38.7572 17.5925 38.4333 16.548 35.5192 14.8701C32.5521 13.2057 31.5982 13.4499 31.5982 13.4499ZM20.222 47.3111L20.6072 49.9184L34.034 26.221C34.034 26.221 32.4142 24.7974 30.5647 23.7488C28.6487 22.661 26.6019 21.9448 26.6019 21.9448L13.1426 45.6849L15.9635 44.7935L17.0671 47.7806L20.222 47.3111ZM10 58.5532L12.1735 48.0751L14.6629 47.2123L15.6199 50.0678L18.8018 49.7041L19.0799 52.1133L11.0511 59.1297L10 58.5532Z" fill="#2D3F4E"/>
<path d="M31.1107 14.1724C32.2867 12.1086 34.913 11.3888 36.9768 12.5648C39.0422 13.7417 39.7612 16.3708 38.5822 18.4349L22.2154 47.0876L14.7442 42.8952L31.1107 14.1724Z" fill="#2D3F4E"/>
<path d="M31.5276 19.1196C30.3451 17.0439 31.0691 14.4027 33.1448 13.2202C35.2204 12.0377 37.8617 12.7618 39.0441 14.8374L60.502 52.5028C61.6845 54.5785 60.9604 57.2197 58.8848 58.4022C56.8091 59.5847 54.1679 58.8607 52.9854 56.785L31.5276 19.1196Z" fill="#2D3F4E"/>
<path d="M27.3981 40.9085C27.1143 40.9085 26.8821 41.1427 26.8821 41.4289V44.551C26.8821 44.8372 27.1143 45.0713 27.3981 45.0713C27.6819 45.0713 27.9141 44.8372 27.9141 44.551V41.4289C27.9141 41.1427 27.6819 40.9085 27.3981 40.9085ZM41.8464 40.9085C41.5626 40.9085 41.3304 41.1427 41.3304 41.4289V44.551C41.3304 44.8372 41.5626 45.0713 41.8464 45.0713C42.1302 45.0713 42.3624 44.8372 42.3624 44.551V41.4289C42.3624 41.1427 42.1302 40.9085 41.8464 40.9085ZM29.4621 37.7864C29.1783 37.7864 28.9461 38.0206 28.9461 38.3068V47.6731C28.9461 47.9592 29.1783 48.1934 29.4621 48.1934C29.7459 48.1934 29.9781 47.9592 29.9781 47.6731V38.3068C29.9781 38.0206 29.7459 37.7864 29.4621 37.7864ZM31.5262 39.8678C31.2424 39.8678 31.0102 40.102 31.0102 40.3882V45.5917C31.0102 45.8779 31.2424 46.112 31.5262 46.112C31.81 46.112 32.0422 45.8779 32.0422 45.5917V40.3882C32.0422 40.102 31.81 39.8678 31.5262 39.8678ZM33.5902 41.9492C33.3064 41.9492 33.0742 42.1834 33.0742 42.4696V43.5103C33.0742 43.7965 33.3064 44.0306 33.5902 44.0306C33.874 44.0306 34.1062 43.7965 34.1062 43.5103V42.4696C34.1062 42.1834 33.874 41.9492 33.5902 41.9492ZM35.6543 39.8678C35.3705 39.8678 35.1383 40.102 35.1383 40.3882V45.5917C35.1383 45.8779 35.3705 46.112 35.6543 46.112C35.9381 46.112 36.1703 45.8779 36.1703 45.5917V40.3882C36.1703 40.102 35.9381 39.8678 35.6543 39.8678ZM37.7183 35.705C37.4345 35.705 37.2023 35.9392 37.2023 36.2254V49.7545C37.2023 50.0406 37.4345 50.2748 37.7183 50.2748C38.0021 50.2748 38.2343 50.0406 38.2343 49.7545V36.2254C38.2343 35.9392 38.0021 35.705 37.7183 35.705ZM39.7824 37.7864C39.4986 37.7864 39.2664 38.0206 39.2664 38.3068V47.6731C39.2664 47.9592 39.4986 48.1934 39.7824 48.1934C40.0662 48.1934 40.2984 47.9592 40.2984 47.6731V38.3068C40.2984 38.0206 40.0662 37.7864 39.7824 37.7864Z" fill="#629BEA"/>
<path d="M31.1107 14.1724C32.2867 12.1086 34.913 11.3888 36.9768 12.5648C39.0422 13.7417 39.7612 16.3708 38.5822 18.4349L22.2154 47.0876L14.7442 42.8952L31.1107 14.1724Z" fill="#2D3F4E"/>
</svg>
