<svg width="192" height="192" viewBox="0 0 192 192" fill="none" xmlns="http://www.w3.org/2000/svg">
<rect width="192" height="192" fill="white"/>
<path d="M85.0144 31.2762L70.4372 56.3303C70.4372 56.3303 75.6718 58.1345 81.999 61.651C88.2857 65.4298 92.1209 68.9422 92.1209 68.9422L105.901 43.4941C105.901 43.4941 104.956 40.4134 96.4542 35.4647C87.7974 30.556 85.0144 31.2762 85.0144 31.2762ZM51.8233 131.143L52.9471 138.833L92.1209 68.9422C92.1209 68.9422 87.3951 64.7434 81.999 61.651C76.4088 58.4425 70.4372 56.3303 70.4372 56.3303L31.1687 126.347L39.3991 123.718L42.6188 132.528L51.8233 131.143ZM22 164.3L28.3413 133.397L35.6045 130.852L38.3964 139.274L47.68 138.201L48.4911 145.307L25.0665 166L22 164.3Z" fill="#11191B"/>
<path d="M83.592 33.407C87.023 27.3202 94.6856 25.1975 100.707 28.6658C106.733 32.1367 108.83 39.8909 105.391 45.9786L57.6393 130.484L35.8414 118.12L83.592 33.407Z" fill="#11191B"/>
<path d="M84.8082 47.9979C81.3582 41.8762 83.4707 34.0863 89.5265 30.5988C95.5824 27.1113 103.288 29.2467 106.738 35.3684L169.343 146.455C172.793 152.577 170.681 160.367 164.625 163.855C158.569 167.342 150.863 165.207 147.413 159.085L84.8082 47.9979Z" fill="#11191B"/>
<path d="M72.7602 112.26C71.9321 112.26 71.2547 112.951 71.2547 113.795V123.003C71.2547 123.847 71.9321 124.538 72.7602 124.538C73.5882 124.538 74.2657 123.847 74.2657 123.003V113.795C74.2657 112.951 73.5882 112.26 72.7602 112.26ZM114.914 112.26C114.086 112.26 113.409 112.951 113.409 113.795V123.003C113.409 123.847 114.086 124.538 114.914 124.538C115.742 124.538 116.42 123.847 116.42 123.003V113.795C116.42 112.951 115.742 112.26 114.914 112.26ZM78.7822 103.052C77.9542 103.052 77.2767 103.743 77.2767 104.587V132.211C77.2767 133.055 77.9542 133.746 78.7822 133.746C79.6102 133.746 80.2877 133.055 80.2877 132.211V104.587C80.2877 103.743 79.6102 103.052 78.7822 103.052ZM84.8042 109.191C83.9762 109.191 83.2987 109.881 83.2987 110.726V126.072C83.2987 126.916 83.9762 127.607 84.8042 127.607C85.6322 127.607 86.3097 126.916 86.3097 126.072V110.726C86.3097 109.881 85.6322 109.191 84.8042 109.191ZM90.8262 115.33C89.9982 115.33 89.3207 116.02 89.3207 116.864V119.934C89.3207 120.778 89.9982 121.468 90.8262 121.468C91.6542 121.468 92.3317 120.778 92.3317 119.934V116.864C92.3317 116.02 91.6542 115.33 90.8262 115.33ZM96.8482 109.191C96.0202 109.191 95.3427 109.881 95.3427 110.726V126.072C95.3427 126.916 96.0202 127.607 96.8482 127.607C97.6762 127.607 98.3537 126.916 98.3537 126.072V110.726C98.3537 109.881 97.6762 109.191 96.8482 109.191ZM102.87 96.9135C102.042 96.9135 101.365 97.6041 101.365 98.4482V138.35C101.365 139.194 102.042 139.884 102.87 139.884C103.698 139.884 104.376 139.194 104.376 138.35V98.4482C104.376 97.6041 103.698 96.9135 102.87 96.9135ZM108.892 103.052C108.064 103.052 107.387 103.743 107.387 104.587V132.211C107.387 133.055 108.064 133.746 108.892 133.746C109.72 133.746 110.398 133.055 110.398 132.211V104.587C110.398 103.743 109.72 103.052 108.892 103.052Z" fill="#14B8A6"/>
<path d="M83.592 33.407C87.023 27.3202 94.6856 25.1975 100.707 28.6658C106.733 32.1367 108.83 39.8909 105.391 45.9786L57.6393 130.484L35.8414 118.12L83.592 33.407Z" fill="#11191B"/>
</svg>
