<svg width="32" height="32" viewBox="0 0 32 32" fill="none" xmlns="http://www.w3.org/2000/svg">
<rect width="32" height="32" fill="white"/>
<path d="M14.0435 5.9779L11.823 9.7534C11.823 9.7534 12.6204 10.0253 13.5842 10.5552C14.5419 11.1247 15.1261 11.6539 15.1261 11.6539L17.2253 7.81906C17.2253 7.81906 17.0814 7.35483 15.7862 6.60908C14.4675 5.86936 14.0435 5.9779 14.0435 5.9779ZM8.98743 21.0273L9.15863 22.1861L15.1261 11.6539C15.1261 11.6539 14.4062 11.0212 13.5842 10.5552C12.7326 10.0717 11.823 9.7534 11.823 9.7534L5.84103 20.3045L7.0948 19.9084L7.58527 21.236L8.98743 21.0273ZM4.44434 26.0238L5.41032 21.3669L6.51676 20.9834L6.94206 22.2525L8.35626 22.0909L8.47983 23.1616L4.91147 26.28L4.44434 26.0238Z" fill="#2D3F4E"/>
<path d="M13.8269 6.299C14.3495 5.38175 15.5168 5.06187 16.434 5.58452C17.352 6.10757 17.6715 7.27608 17.1475 8.19347L9.8734 20.928L6.55285 19.0647L13.8269 6.299Z" fill="#2D3F4E"/>
<path d="M14.0121 8.49776C13.4866 7.57525 13.8084 6.40136 14.7309 5.87581C15.6534 5.35026 16.8273 5.67206 17.3528 6.59457L26.8897 23.3348C27.4152 24.2573 27.0934 25.4312 26.1709 25.9567C25.2484 26.4823 24.0745 26.1605 23.549 25.238L14.0121 8.49776Z" fill="#2D3F4E"/>
<path d="M12.1768 18.1817C12.0507 18.1817 11.9475 18.2858 11.9475 18.413V19.8006C11.9475 19.9278 12.0507 20.0319 12.1768 20.0319C12.303 20.0319 12.4062 19.9278 12.4062 19.8006V18.413C12.4062 18.2858 12.303 18.1817 12.1768 18.1817ZM18.5983 18.1817C18.4722 18.1817 18.369 18.2858 18.369 18.413V19.8006C18.369 19.9278 18.4722 20.0319 18.5983 20.0319C18.7244 20.0319 18.8276 19.9278 18.8276 19.8006V18.413C18.8276 18.2858 18.7244 18.1817 18.5983 18.1817ZM13.0942 16.7941C12.968 16.7941 12.8648 16.8982 12.8648 17.0254V21.1882C12.8648 21.3154 12.968 21.4195 13.0942 21.4195C13.2203 21.4195 13.3235 21.3154 13.3235 21.1882V17.0254C13.3235 16.8982 13.2203 16.7941 13.0942 16.7941ZM14.0115 17.7192C13.8854 17.7192 13.7822 17.8233 13.7822 17.9505V20.2631C13.7822 20.3903 13.8854 20.4944 14.0115 20.4944C14.1377 20.4944 14.2409 20.3903 14.2409 20.2631V17.9505C14.2409 17.8233 14.1377 17.7192 14.0115 17.7192ZM14.9289 18.6443C14.8027 18.6443 14.6995 18.7483 14.6995 18.8755V19.3381C14.6995 19.4653 14.8027 19.5693 14.9289 19.5693C15.055 19.5693 15.1582 19.4653 15.1582 19.3381V18.8755C15.1582 18.7483 15.055 18.6443 14.9289 18.6443ZM15.8462 17.7192C15.7201 17.7192 15.6169 17.8233 15.6169 17.9505V20.2631C15.6169 20.3903 15.7201 20.4944 15.8462 20.4944C15.9724 20.4944 16.0756 20.3903 16.0756 20.2631V17.9505C16.0756 17.8233 15.9724 17.7192 15.8462 17.7192ZM16.7636 15.8691C16.6375 15.8691 16.5343 15.9731 16.5343 16.1003V22.1133C16.5343 22.2404 16.6375 22.3445 16.7636 22.3445C16.8897 22.3445 16.9929 22.2404 16.9929 22.1133V16.1003C16.9929 15.9731 16.8897 15.8691 16.7636 15.8691ZM17.6809 16.7941C17.5548 16.7941 17.4516 16.8982 17.4516 17.0254V21.1882C17.4516 21.3154 17.5548 21.4195 17.6809 21.4195C17.8071 21.4195 17.9103 21.3154 17.9103 21.1882V17.0254C17.9103 16.8982 17.8071 16.7941 17.6809 16.7941Z" fill="#629BEA"/>
<path d="M13.8269 6.299C14.3495 5.38175 15.5168 5.06187 16.434 5.58452C17.352 6.10757 17.6715 7.27608 17.1475 8.19347L9.8734 20.928L6.55285 19.0647L13.8269 6.299Z" fill="#2D3F4E"/>
</svg>
