<svg width="32" height="32" viewBox="0 0 32 32" fill="none" xmlns="http://www.w3.org/2000/svg">
<rect width="32" height="32" fill="white"/>
<path d="M15.0354 8.52299L13.1766 11.5872C13.1766 11.5872 13.8441 11.8078 14.6509 12.2379C15.4525 12.7 15.9416 13.1296 15.9416 13.1296L17.6988 10.0173C17.6988 10.0173 17.5783 9.64049 16.4942 9.03525C15.3903 8.4349 15.0354 8.52299 15.0354 8.52299ZM10.803 20.737L10.9463 21.6774L15.9416 13.1296C15.9416 13.1296 15.339 12.6161 14.6509 12.2379C13.938 11.8455 13.1766 11.5872 13.1766 11.5872L8.16916 20.1504L9.21867 19.8288L9.62924 20.9063L10.803 20.737ZM7 24.7921L7.80862 21.0126L8.7348 20.7013L9.09082 21.7313L10.2746 21.6001L10.3781 22.4691L7.39104 25L7 24.7921Z" fill="#11191B"/>
<path d="M14.854 8.78359C15.2915 8.03916 16.2686 7.77955 17.0365 8.20373C17.8048 8.62823 18.0723 9.57659 17.6337 10.3211L11.5446 20.6563L8.76501 19.1441L14.854 8.78359Z" fill="#11191B"/>
<path d="M15.0091 10.5681C14.5692 9.81939 14.8385 8.86667 15.6108 8.44014C16.383 8.01361 17.3656 8.27478 17.8056 9.02348L25.7887 22.6097C26.2287 23.3584 25.9593 24.3111 25.1871 24.7376C24.4149 25.1641 23.4322 24.903 22.9923 24.1543L15.0091 10.5681Z" fill="#11191B"/>
<path d="M13.4728 18.4275C13.3672 18.4275 13.2808 18.512 13.2808 18.6152V19.7414C13.2808 19.8446 13.3672 19.9291 13.4728 19.9291C13.5784 19.9291 13.6648 19.8446 13.6648 19.7414V18.6152C13.6648 18.512 13.5784 18.4275 13.4728 18.4275ZM18.8481 18.4275C18.7425 18.4275 18.6562 18.512 18.6562 18.6152V19.7414C18.6562 19.8446 18.7425 19.9291 18.8481 19.9291C18.9537 19.9291 19.0401 19.8446 19.0401 19.7414V18.6152C19.0401 18.512 18.9537 18.4275 18.8481 18.4275ZM14.2407 17.3013C14.1351 17.3013 14.0487 17.3858 14.0487 17.489V20.8675C14.0487 20.9708 14.1351 21.0552 14.2407 21.0552C14.3463 21.0552 14.4327 20.9708 14.4327 20.8675V17.489C14.4327 17.3858 14.3463 17.3013 14.2407 17.3013ZM15.0086 18.0521C14.903 18.0521 14.8166 18.1366 14.8166 18.2398V20.1167C14.8166 20.22 14.903 20.3044 15.0086 20.3044C15.1142 20.3044 15.2006 20.22 15.2006 20.1167V18.2398C15.2006 18.1366 15.1142 18.0521 15.0086 18.0521ZM15.7765 18.8029C15.6709 18.8029 15.5845 18.8874 15.5845 18.9906V19.366C15.5845 19.4692 15.6709 19.5537 15.7765 19.5537C15.8821 19.5537 15.9685 19.4692 15.9685 19.366V18.9906C15.9685 18.8874 15.8821 18.8029 15.7765 18.8029ZM16.5444 18.0521C16.4388 18.0521 16.3524 18.1366 16.3524 18.2398V20.1167C16.3524 20.22 16.4388 20.3044 16.5444 20.3044C16.65 20.3044 16.7364 20.22 16.7364 20.1167V18.2398C16.7364 18.1366 16.65 18.0521 16.5444 18.0521ZM17.3123 16.5506C17.2067 16.5506 17.1203 16.635 17.1203 16.7383V21.6183C17.1203 21.7215 17.2067 21.806 17.3123 21.806C17.4179 21.806 17.5043 21.7215 17.5043 21.6183V16.7383C17.5043 16.635 17.4179 16.5506 17.3123 16.5506ZM18.0802 17.3013C17.9746 17.3013 17.8882 17.3858 17.8882 17.489V20.8675C17.8882 20.9708 17.9746 21.0552 18.0802 21.0552C18.1858 21.0552 18.2722 20.9708 18.2722 20.8675V17.489C18.2722 17.3858 18.1858 17.3013 18.0802 17.3013Z" fill="#14B8A6"/>
<path d="M14.854 8.78359C15.2915 8.03916 16.2686 7.77955 17.0365 8.20373C17.8048 8.62823 18.0723 9.57659 17.6337 10.3211L11.5446 20.6563L8.76501 19.1441L14.854 8.78359Z" fill="#11191B"/>
</svg>
