<svg width="679" height="243" viewBox="0 0 679 243" fill="none" xmlns="http://www.w3.org/2000/svg">
<path d="M241.557 200.956V105.956H259.557V200.956H241.557ZM250.557 86.9564C247.224 86.9564 244.49 85.8897 242.357 83.7564C240.224 81.4897 239.157 78.6897 239.157 75.3564C239.157 72.1564 240.224 69.4897 242.357 67.3564C244.49 65.0897 247.224 63.9564 250.557 63.9564C253.89 63.9564 256.624 65.0897 258.757 67.3564C260.89 69.4897 261.957 72.1564 261.957 75.3564C261.957 78.6897 260.89 81.4897 258.757 83.7564C256.624 85.8897 253.89 86.9564 250.557 86.9564Z" fill="#D3E3E1"/>
<path d="M286.083 200.956V105.956H304.083V200.956H286.083ZM304.083 146.756L297.284 143.756C297.284 131.623 300.084 121.956 305.684 114.756C311.284 107.556 319.35 103.956 329.884 103.956C334.684 103.956 339.017 104.823 342.884 106.556C346.75 108.156 350.35 110.89 353.684 114.756L341.884 126.956C339.884 124.823 337.684 123.29 335.284 122.356C332.884 121.423 330.084 120.956 326.884 120.956C320.217 120.956 314.75 123.09 310.483 127.356C306.217 131.623 304.083 138.09 304.083 146.756Z" fill="#D3E3E1"/>
<path d="M373.073 200.956V62.1564H391.873V200.956H373.073ZM385.873 200.956V183.756H460.273V200.956H385.873Z" fill="#D3E3E1"/>
<path d="M519.523 202.956C510.189 202.956 501.789 200.756 494.323 196.356C486.856 191.956 480.923 186.023 476.523 178.556C472.123 170.956 469.923 162.49 469.923 153.156C469.923 143.956 472.123 135.69 476.523 128.356C480.923 120.89 486.856 114.956 494.323 110.556C501.789 106.156 510.189 103.956 519.523 103.956C528.723 103.956 537.056 106.156 544.523 110.556C552.123 114.823 558.123 120.69 562.523 128.156C566.923 135.623 569.123 143.956 569.123 153.156C569.123 162.49 566.923 170.956 562.523 178.556C558.123 186.023 552.123 191.956 544.523 196.356C537.056 200.756 528.723 202.956 519.523 202.956ZM519.523 185.556C525.523 185.556 530.856 184.156 535.523 181.356C540.189 178.556 543.856 174.756 546.523 169.956C549.189 165.023 550.523 159.423 550.523 153.156C550.523 147.023 549.123 141.556 546.323 136.756C543.656 131.956 539.989 128.223 535.323 125.556C530.789 122.756 525.523 121.356 519.523 121.356C513.523 121.356 508.189 122.756 503.523 125.556C498.856 128.223 495.189 131.956 492.523 136.756C489.856 141.556 488.523 147.023 488.523 153.156C488.523 159.423 489.856 165.023 492.523 169.956C495.189 174.756 498.856 178.556 503.523 181.356C508.189 184.156 513.523 185.556 519.523 185.556Z" fill="#D3E3E1"/>
<path d="M628.804 242.756C619.07 242.756 610.404 240.956 602.804 237.356C595.337 233.756 589.337 228.69 584.804 222.156L596.404 210.356C600.27 215.29 604.87 219.023 610.204 221.556C615.537 224.223 621.87 225.556 629.204 225.556C638.937 225.556 646.604 222.956 652.204 217.756C657.937 212.69 660.804 205.823 660.804 197.156V173.556L664.004 152.156L660.804 130.956V105.956H678.804V197.156C678.804 206.223 676.67 214.156 672.404 220.956C668.27 227.756 662.404 233.09 654.804 236.956C647.337 240.823 638.67 242.756 628.804 242.756ZM628.804 199.356C620.137 199.356 612.337 197.29 605.404 193.156C598.604 189.023 593.204 183.356 589.204 176.156C585.204 168.823 583.204 160.623 583.204 151.556C583.204 142.49 585.204 134.423 589.204 127.356C593.204 120.156 598.604 114.49 605.404 110.356C612.337 106.09 620.137 103.956 628.804 103.956C636.27 103.956 642.87 105.423 648.604 108.356C654.337 111.29 658.87 115.423 662.204 120.756C665.67 125.956 667.537 132.09 667.804 139.156V164.356C667.404 171.29 665.471 177.423 662.004 182.756C658.671 187.956 654.137 192.023 648.404 194.956C642.67 197.89 636.137 199.356 628.804 199.356ZM632.404 182.356C638.27 182.356 643.404 181.09 647.804 178.556C652.337 176.023 655.804 172.49 658.204 167.956C660.604 163.29 661.804 157.89 661.804 151.756C661.804 145.623 660.537 140.29 658.004 135.756C655.604 131.09 652.204 127.49 647.804 124.956C643.404 122.29 638.204 120.956 632.204 120.956C626.204 120.956 620.937 122.29 616.404 124.956C611.87 127.49 608.27 131.09 605.604 135.756C603.07 140.29 601.804 145.556 601.804 151.556C601.804 157.556 603.07 162.89 605.604 167.556C608.27 172.223 611.87 175.89 616.404 178.556C621.07 181.09 626.404 182.356 632.404 182.356Z" fill="#D3E3E1"/>
<path d="M94.8737 6.37012L72.9265 43.6853C72.9265 43.6853 80.8076 46.3724 90.3338 51.6099C99.7989 57.238 105.573 62.4693 105.573 62.4693L126.321 24.5672C126.321 24.5672 124.898 19.979 112.097 12.6084C99.0638 5.29737 94.8737 6.37012 94.8737 6.37012ZM44.9016 155.111L46.5936 166.564L105.573 62.4693C105.573 62.4693 98.4581 56.2157 90.3338 51.6099C81.9172 46.8312 72.9265 43.6853 72.9265 43.6853L13.8042 147.967L26.1958 144.052L31.0434 157.173L44.9016 155.111ZM0 204.494L9.54733 158.467L20.4827 154.677L24.6863 167.22L38.6635 165.622L39.8847 176.205L4.61695 207.026L0 204.494Z" fill="#D3E3E1"/>
<path d="M94.562 31.2753C89.3677 22.1577 92.5482 10.5556 101.666 5.36136C110.783 0.167078 122.386 3.34758 127.58 12.4652L221.837 177.917C227.031 187.034 223.851 198.636 214.733 203.831C205.615 209.025 194.013 205.844 188.819 196.727L94.562 31.2753Z" fill="#D3E3E1"/>
<path d="M92.7309 9.54252C97.8966 0.476892 109.433 -2.68464 118.499 2.48104C127.571 7.65058 130.73 19.1995 125.551 28.2665L53.6569 154.128L20.8383 135.712L92.7309 9.54252Z" fill="#D3E3E1"/>
<path d="M76.4236 126.985C75.1769 126.985 74.1569 128.013 74.1569 129.271V142.985C74.1569 144.242 75.1769 145.271 76.4236 145.271C77.6703 145.271 78.6903 144.242 78.6903 142.985V129.271C78.6903 128.013 77.6703 126.985 76.4236 126.985ZM139.89 126.985C138.644 126.985 137.624 128.013 137.624 129.271V142.985C137.624 144.242 138.644 145.271 139.89 145.271C141.137 145.271 142.157 144.242 142.157 142.985V129.271C142.157 128.013 141.137 126.985 139.89 126.985ZM85.4903 113.271C84.2436 113.271 83.2236 114.299 83.2236 115.556V156.699C83.2236 157.956 84.2436 158.985 85.4903 158.985C86.7369 158.985 87.7569 157.956 87.7569 156.699V115.556C87.7569 114.299 86.7369 113.271 85.4903 113.271ZM94.5569 122.413C93.3103 122.413 92.2903 123.442 92.2903 124.699V147.556C92.2903 148.813 93.3103 149.842 94.5569 149.842C95.8036 149.842 96.8236 148.813 96.8236 147.556V124.699C96.8236 123.442 95.8036 122.413 94.5569 122.413ZM103.624 131.556C102.377 131.556 101.357 132.585 101.357 133.842V138.413C101.357 139.671 102.377 140.699 103.624 140.699C104.87 140.699 105.89 139.671 105.89 138.413V133.842C105.89 132.585 104.87 131.556 103.624 131.556ZM112.69 122.413C111.444 122.413 110.424 123.442 110.424 124.699V147.556C110.424 148.813 111.444 149.842 112.69 149.842C113.937 149.842 114.957 148.813 114.957 147.556V124.699C114.957 123.442 113.937 122.413 112.69 122.413ZM121.757 104.128C120.51 104.128 119.49 105.156 119.49 106.413V165.842C119.49 167.099 120.51 168.128 121.757 168.128C123.004 168.128 124.024 167.099 124.024 165.842V106.413C124.024 105.156 123.004 104.128 121.757 104.128ZM130.824 113.271C129.577 113.271 128.557 114.299 128.557 115.556V156.699C128.557 157.956 129.577 158.985 130.824 158.985C132.07 158.985 133.09 157.956 133.09 156.699V115.556C133.09 114.299 132.07 113.271 130.824 113.271Z" fill="#14B8A6"/>
<path d="M92.7309 9.54252C97.8966 0.476892 109.433 -2.68464 118.499 2.48104C127.571 7.65058 130.73 19.1995 125.551 28.2665L53.6569 154.128L20.8383 135.712L92.7309 9.54252Z" fill="#D3E3E1"/>
</svg>
